:SAMPLES-PER-SECOND 30
:FULLY-SPECIFIED
:DEGREES
1286
root  -1.64541 14.213 -1.76277 6.2896 72.5542 22.7966
RightUpLeg  -84.3272 -12.0859 -11.3567
RightLeg  137.91 -0.620588 1.07244
RightFoot  -33.7549 -1.59998 -6.90244
RightToes  9.54606e-009 0 -3.6325e-017
Spine  61.9161 1.08658 -13.8539
Spine1  11.3121 -5.46775 -9.2135
HEad  -34.4286 -26.6502 2.403
LeftShoulder1  1.13201 -5.70022 -4.3798
LeftArm  -9.51561 -55.7288 -97.7723
LeftForeArm  149.079 -65.8539 -155.822
LeftHand  -0.118857 3.62818 6.5702
RightShoulder  0.196901 -1.418 1.15289
RightArm  -62.2348 18.2419 14.284
RightForeArm  165.157 46.856 168.835
RightHand  -2.9016 18.2783 -14.524
LeftUpLeg  -70.6222 26.7668 26.3808
LeftLeg  129.099 10.0909 -11.7891
LeftFoot  -28.5148 -0.0681903 -1.58875
LeftToes  -8.26734e-010 9.74065e-011 1.64617e-011
1287
root  -1.30005 13.4531 -1.91014 5.23704 73.3885 23.8625
RightUpLeg  -83.3496 -11.6813 -14.3957
RightLeg  140.717 -1.04984 1.33729
RightFoot  -34.6185 -1.47714 -6.02465
RightToes  9.54606e-009 0 -3.6325e-017
Spine  63.6278 1.00892 -12.3567
Spine1  11.2233 -5.20474 -7.85576
HEad  -34.9202 -26.578 1.73906
LeftShoulder1  1.10379 -5.40577 -4.48006
LeftArm  -9.45619 -56.3504 -97.2275
LeftForeArm  149.641 -65.9861 -155.742
LeftHand  -0.230433 2.35866 8.64808
RightShoulder  0.233455 -1.04329 1.16304
RightArm  -58.8597 21.5634 16.1316
RightForeArm  172.483 47.3575 169.142
RightHand  -2.40863 16.394 -13.1914
LeftUpLeg  -70.2902 25.9565 27.9697
LeftLeg  131.794 11.4571 -12.1168
LeftFoot  -29.0922 0.0364032 -0.889547
LeftToes  -8.26734e-010 9.74065e-011 1.64617e-011
1288
root  -0.99844 13.1207 -1.92556 5.57741 74.32 25.1017
RightUpLeg  -81.8251 -11.0172 -16.3824
RightLeg  142.342 -0.608988 0.963665
RightFoot  -36.0582 -1.32095 -4.89453
RightToes  9.54606e-009 0 -3.6325e-017
Spine  64.7626 1.01783 -11.3656
Spine1  10.4166 -5.01077 -6.75403
HEad  -34.6867 -26.5322 1.15106
LeftShoulder1  1.07049 -5.44872 -3.99231
LeftArm  -9.2268 -56.7663 -97.3967
LeftForeArm  150.628 -65.755 -156.098
LeftHand  -0.214212 2.63142 8.53994
RightShoulder  0.32003 -0.340342 1.93862
RightArm  -56.4926 21.4938 17.5888
RightForeArm  176.892 46.9131 169.597
RightHand  -2.02105 15.0552 -11.9508
LeftUpLeg  -69.9162 24.9644 28.8449
LeftLeg  133.097 12.4294 -12.5123
LeftFoot  -29.8735 0.0641075 -0.705077
LeftToes  -8.26734e-010 9.74065e-011 1.64617e-011
1289
root  -0.734332 13.288 -1.8853 6.6107 74.7609 24.8891
RightUpLeg  -81.1273 -10.1375 -16.5892
RightLeg  142.319 0.308054 0.303801
RightFoot  -37.4927 -1.10435 -3.66867
RightToes  9.54606e-009 0 -3.6325e-017
Spine  63.8297 1.1031 -10.9167
Spine1  10.428 -4.80975 -5.52305
HEad  -35.5922 -24.5802 1.46609
LeftShoulder1  1.02204 -5.12592 -3.85858
LeftArm  -8.85748 -57.2539 -97.8935
LeftForeArm  151.431 -65.8938 -156.042
LeftHand  -0.124322 3.39646 6.53267
RightShoulder  0.344826 -0.335334 2.79501
RightArm  -55.8021 21.1944 18.415
RightForeArm  179.409 46.8665 169.78
RightHand  -1.49015 19.5704 -7.21168
LeftUpLeg  -70.1874 24.647 28.4207
LeftLeg  133.091 12.2155 -12.3103
LeftFoot  -30.9367 -0.0567728 -1.40917
LeftToes  -8.26734e-010 9.74065e-011 1.64617e-011
1290
root  -0.548868 13.9511 -1.81582 10.2716 75.3642 25.8124
RightUpLeg  -80.5315 -9.55638 -16.3597
RightLeg  140.633 1.27815 -0.449704
RightFoot  -39.2105 -0.623992 -1.41847
RightToes  9.54606e-009 0 -3.6325e-017
Spine  61.7977 0.819141 -11.018
Spine1  10.6066 -5.12788 -4.81093
HEad  -36.7868 -21.9158 1.76515
LeftShoulder1  0.954552 -4.91053 -3.29922
LeftArm  -9.87332 -57.5969 -97.5333
LeftForeArm  153.217 -65.5404 -156.608
LeftHand  -0.0994116 3.64004 5.69084
RightShoulder  0.403297 0.137658 3.02707
RightArm  -55.0694 19.1528 19.5024
RightForeArm  178.23 47.2029 169.583
RightHand  -2.46031 22.273 -10.883
LeftUpLeg  -71.3137 23.9769 25.7003
LeftLeg  131.838 10.4721 -11.1287
LeftFoot  -31.8276 -0.201566 -2.17608
LeftToes  -8.26734e-010 9.74065e-011 1.64617e-011
1291
root  -0.372561 15.0567 -1.71003 13.3679 75.6997 25.3674
RightUpLeg  -79.4694 -9.03931 -14.9901
RightLeg  137.529 2.55632 -1.63483
RightFoot  -40.2526 -0.364307 -0.350917
RightToes  9.54606e-009 0 -3.6325e-017
Spine  59.8918 0.599522 -10.942
Spine1  9.58028 -5.21847 -4.22312
HEad  -37.7582 -19.0219 1.36876
LeftShoulder1  0.977423 -5.05237 -3.38919
LeftArm  -10.1126 -58.0815 -97.0546
LeftForeArm  153.497 -65.1594 -157.022
LeftHand  -0.0651447 4.50133 6.09037
RightShoulder  0.419039 -0.143041 4.59817
RightArm  -54.4314 16.2824 18.844
RightForeArm  177.977 47.0719 169.612
RightHand  -2.42968 15.8051 -13.5063
LeftUpLeg  -71.7662 23.4961 22.8752
LeftLeg  129.171 8.51085 -10.0397
LeftFoot  -32.771 -0.391242 -3.1123
LeftToes  -8.26734e-010 9.74065e-011 1.64617e-011
1292
root  -0.202046 16.4624 -1.53937 14.9239 75.9839 24.0452
RightUpLeg  -77.0167 -8.41234 -13.145
RightLeg  133.25 3.33364 -2.73256
RightFoot  -41.2818 0.196754 1.80253
RightToes  9.54606e-009 0 -3.6325e-017
Spine  58.4172 0.699859 -11.3158
Spine1  8.60985 -5.41135 -3.29789
HEad  -38.7377 -15.4105 0.839005
LeftShoulder1  0.993131 -4.8184 -3.96286
LeftArm  -10.466 -57.8425 -96.1221
LeftForeArm  154.433 -64.7226 -157.546
LeftHand  -0.102509 3.64863 5.76413
RightShoulder  0.463991 -0.12204 6.01306
RightArm  -53.7415 12.9596 18.5353
RightForeArm  175.778 46.479 169.676
RightHand  -1.78656 13.2601 -11.4987
LeftUpLeg  -70.5285 22.7904 20.6979
LeftLeg  125.317 6.51573 -8.93342
LeftFoot  -33.5298 -0.584475 -4.01297
LeftToes  -8.26734e-010 9.74065e-011 1.64617e-011
1293
root  0.0340453 18.0216 -1.36344 15.0692 75.9603 22.0391
RightUpLeg  -73.7779 -7.88012 -11.4344
RightLeg  128.419 3.71943 -3.74914
RightFoot  -41.636 0.562335 3.13338
RightToes  9.54606e-009 0 -3.6325e-017
Spine  56.9931 0.885004 -11.495
Spine1  7.97487 -5.35709 -2.44698
HEad  -39.6992 -11.9185 0.122742
LeftShoulder1  1.02341 -4.74919 -4.49125
LeftArm  -11.1334 -57.9032 -95.1373
LeftForeArm  154.946 -64.1207 -158.163
LeftHand  -0.13108 3.21904 6.33406
RightShoulder  0.524991 0.0157832 7.38973
RightArm  -51.8118 9.11553 18.4434
RightForeArm  176.562 46.462 169.733
RightHand  -1.6528 13.0002 -10.7856
LeftUpLeg  -67.9638 22.2222 19.0745
LeftLeg  120.886 4.61048 -7.61855
LeftFoot  -33.9283 -0.768318 -4.87219
LeftToes  -8.26734e-010 9.74065e-011 1.64617e-011
1294
root  0.353193 19.6303 -1.18195 14.6523 75.9724 20.1356
RightUpLeg  -69.8884 -7.89999 -10.0599
RightLeg  123.373 3.46595 -4.19514
RightFoot  -41.7594 0.804432 4.01658
RightToes  9.54606e-009 0 -3.6325e-017
Spine  55.1529 0.924789 -11.5687
Spine1  8.2069 -5.26262 -1.77081
HEad  -40.8743 -7.82697 -0.307449
LeftShoulder1  1.02711 -4.55957 -4.87144
LeftArm  -11.3966 -58.2254 -94.8992
LeftForeArm  155.672 -63.5139 -158.779
LeftHand  -0.118865 3.32461 5.94121
RightShoulder  0.542562 -0.138737 8.75306
RightArm  -49.6477 6.51251 18.7476
RightForeArm  177.771 46.6374 169.752
RightHand  -1.58876 13.3338 -10.3757
LeftUpLeg  -64.4037 21.7229 17.9901
LeftLeg  116.007 3.21928 -6.63184
LeftFoot  -34.2406 -0.880546 -5.36621
LeftToes  -8.26734e-010 9.74065e-011 1.64617e-011
1295
root  0.722432 21.34 -1.05289 13.3097 76.1535 18.0623
RightUpLeg  -65.3191 -8.49485 -9.06328
RightLeg  117.974 2.79621 -4.11626
RightFoot  -40.6932 0.818242 4.18983
RightToes  9.54606e-009 0 -3.6325e-017
Spine  53.6872 0.569335 -11.1275
Spine1  8.35567 -5.44261 -0.978509
HEad  -41.5539 -3.77176 -0.929733
LeftShoulder1  1.02066 -4.19504 -5.4591
LeftArm  -12.1764 -58.0549 -94.1142
LeftForeArm  156.159 -63.1368 -159.154
LeftHand  -0.143771 2.78635 5.92514
RightShoulder  0.563977 -0.349422 10.7386
RightArm  -45.4831 4.91895 19.6451
RightForeArm  175.865 47.3213 169.381
RightHand  -1.91329 18.344 -9.81526
LeftUpLeg  -59.9674 20.9379 17.2408
LeftLeg  110.569 2.10466 -5.78638
LeftFoot  -34.3061 -0.972387 -5.8039
LeftToes  -8.26734e-010 9.74065e-011 1.64617e-011
1296
root  1.16513 23.0091 -0.856123 11.4752 76.0706 16.1207
RightUpLeg  -60.3251 -8.91767 -8.03626
RightLeg  112.516 2.38015 -4.34286
RightFoot  -39.5562 0.775244 4.16348
RightToes  9.54606e-009 0 -3.6325e-017
Spine  52.0885 0.478295 -10.7686
Spine1  8.47772 -5.24611 -0.416382
HEad  -41.9191 -0.414551 -1.66444
LeftShoulder1  1.05187 -3.77885 -6.7962
LeftArm  -12.7742 -57.7817 -92.6703
LeftForeArm  156.551 -63.6561 -158.744
LeftHand  -0.171556 2.65151 6.8212
RightShoulder  0.558373 -0.613002 12.3382
RightArm  -40.7426 3.62976 21.1397
RightForeArm  176.855 48.6646 168.958
RightHand  -1.50886 12.6355 -9.93869
LeftUpLeg  -54.8007 20.7669 16.9922
LeftLeg  104.937 1.25786 -5.07878
LeftFoot  -33.9169 -0.944605 -5.75463
LeftToes  -8.26734e-010 9.74065e-011 1.64617e-011
1297
root  1.67634 24.6714 -0.648367 11.2272 76.278 15.6097
RightUpLeg  -55.4471 -9.88308 -7.62488
RightLeg  106.866 1.71503 -3.95347
RightFoot  -38.3589 0.719165 4.08594
RightToes  9.54606e-009 0 -3.6325e-017
Spine  50.3892 0.291438 -10.4227
Spine1  8.01848 -5.24292 0.476682
HEad  -42.115 2.03363 -2.15604
LeftShoulder1  1.02028 -3.17665 -7.71253
LeftArm  -13.5886 -56.7682 -91.4098
LeftForeArm  156.896 -64.3483 -158.163
LeftHand  -0.193875 2.55664 7.36895
RightShoulder  0.567688 -0.754523 13.8512
RightArm  -36.1661 2.22344 22.7319
RightForeArm  -179.057 49.8871 168.769
RightHand  -0.875508 10.6026 -6.79905
LeftUpLeg  -50.1211 20.2949 16.4059
LeftLeg  99.0905 0.566246 -4.32006
LeftFoot  -32.8487 -0.904914 -5.8056
LeftToes  -8.26734e-010 9.74065e-011 1.64617e-011
1298
root  2.22452 26.3383 -0.515694 9.57079 76.425 13.6431
RightUpLeg  -50.5329 -10.618 -7.14677
RightLeg  100.624 1.11285 -3.48177
RightFoot  -36.9448 0.624548 3.85953
RightToes  9.54606e-009 0 -3.6325e-017
Spine  48.8043 0.0106304 -9.34445
Spine1  7.30348 -5.15004 1.88414
HEad  -42.0942 3.94748 -2.65526
LeftShoulder1  1.02864 -2.9561 -8.4486
LeftArm  -14.7847 -55.7845 -89.5314
LeftForeArm  157.4 -65.0987 -157.497
LeftHand  -0.111675 3.38144 5.58692
RightShoulder  0.523847 -1.06761 14.8116
RightArm  -31.0205 1.35851 24.692
RightForeArm  176.218 52.1631 167.486
RightHand  -1.19454 10.4791 -9.10457
LeftUpLeg  -45.5924 19.5913 16.1869
LeftLeg  93.0772 0.0336653 -3.49279
LeftFoot  -31.2901 -0.89111 -6.13738
LeftToes  -8.26734e-010 9.74065e-011 1.64617e-011
